<?xml version="1.0" encoding="UTF-8" standalone="no"?> <svg xmlns="http://www.w3.org/2000/svg" height="30px" width="30px" version="1.1" xmlns:xlink="http://www.w3.org/1999/xlink" viewBox="0 0 30 30"><defs><rect id="path-1" rx="40" height="30" width="30" y="0" x="0"/></defs><g id="Page-1" fill-rule="evenodd" fill="none"><g id="NAV---Notifications-Copy" transform="translate(-1399 -340)"><g id="Group-2-Copy-2" transform="translate(1399 340)"><g id="icn_nav_friendreqs-copy-2" opacity=".60092"><g id="icn_sponsored-copy-5"><g id="Mask-+-Path-28-+-Path-29-Copy"><mask id="mask-2" fill="white"><use xlink:href="#path-1"/></mask><use id="Mask" xlink:href="#path-1" fill="#927F64"/></g></g></g><g id="Group" transform="translate(3.65 5.5)"><path id="Path" fill-opacity=".5" fill="#F9F7F3" d="m15.76 10.989c-0.557 0.286-1.771 0.587-1.793 0.598-0.007 0.003-0.039 0.01-0.095 0.025 0.491 0.174 1.067 0.356 1.671 0.501 0.486 0.116 0.899 0.342 1.229 0.672 0.271 0.27 0.479 0.606 0.619 0.998 0.207 0.579 0.229 1.189 0.205 1.631 0.002 0.069 0.003 0.115 0.003 0.169 0.716-0.032 4.025-0.244 5.126-1.318v-1.25s-0.039-0.7-0.763-1.022c-0.725-0.321-1.094-0.386-1.119-0.399-0.022-0.011-1.236-0.312-1.793-0.598-0.131-0.079-0.213-0.138-0.213-0.138v-0.08l-0.001-0.489s0.415-0.221 0.675-0.5195c0.26-0.2984 0.352-0.6035 0.373-0.6394-0.005-0.1267 0.169 0.1326 0.355-0.0116 0.18-0.1404 0.122-0.4783 0.232-0.7739 0.11-0.296 0.114-0.6207 0.135-0.8201-0.123-0.4389-0.473-0.1463-0.465-0.3003 0.084-1.7366 0.122-3.292-1.322-3.4421 0 0-1.108-0.8462-2.532-0.335-1.016 0.335-1.603 0.901-1.872 2.3102-0.031 0.2104 0.361 0.174 0.354 0.4273-0.003 0.1199 0.107 1.0942 0.11 1.2244 0.002 0.0502-0.204-0.1558-0.396 0.0353-0.043 0.1475 0.042 0.694 0.197 1.1366 0.044 0.1407 0.145 0.5807 0.192 0.6186 0.11 0.0892 0.417-0.0799 0.417-0.0799 0.099-0.0995 0.127 0.2697 0.316 0.5703 0.31 0.4911 0.488 0.5041 0.505 0.5311-0.005 0.126-0.008 0.382-0.077 0.588"/><path id="Path" fill-opacity=".5" fill="#F9F7F3" d="m5.4339 14.087c0.1399-0.392 0.3481-0.727 0.6189-0.998 0.33-0.329 0.7434-0.555 1.2286-0.671 0.5969-0.143 1.1609-0.314 1.6414-0.475-0.1007-0.028-0.1561-0.04-0.1654-0.045-0.0218-0.011-1.2358-0.312-1.7929-0.598-0.1309-0.079-0.213-0.138-0.213-0.138v-0.08l-0.0002-0.489s1.5705-0.216 1.6766-0.277c-0.473-0.4775-0.6513-1.1941-0.6199-1.1552 0.4057 0.5019 0.5058 0.9322 1.0604 1.0702 0 0-0.8358-0.6407-0.6328-2.5805 0.2029-1.9397-1.5532-4.473-2.8502-3.9647 0 0-0.2691-0.1848-1.1948 0.1638-0.4891 0.1756-1.8019 0.6195-1.7348 3.3072 0.0668 2.6877-1.0118 2.7035-1.0118 2.7035s0.2707 0.3097 0.3158 0.2697c0.8129-0.7115 0.4946-0.6205 0.1665 0.069 0.391 0.2 1.0642 0.417 1.9615 0.409v0.547s-0.082 0.059-0.213 0.138c-0.5568 0.286-1.771 0.587-1.7929 0.598-0.0254 0.013-0.3942 0.077-1.119 0.399-0.72486 0.322-0.76289 1.021-0.76289 1.021l-0.00001 1.314c1.1005 1.01 4.4937 1.228 5.2324 1.261-0.0003-0.035-0.0003-0.068 0-0.096-0.03-0.446-0.0171-1.092 0.2015-1.703z"/><path id="Fill-1-Copy" fill="#927F64" d="m18.613 14.262l0.006-0.001s0.015 1.002-0.156 1.408c0 0-2.613 1.602-6.989 1.602l0.002-0.093-0.008 0.093c-4.3765 0-6.9895-1.602-6.9895-1.602-0.1711-0.406-0.1555-1.408-0.1555-1.408-0.0539-0.721 0.0108-2.177 1.3485-2.498 1.7947-0.43 3.2833-1.087 3.2833-1.087 0.2942-0.382 0.3469-1.1825 0.3469-1.1825-0.5616-0.5701-0.8105-1.2838-0.9153-1.8872-0.0372 0.0257-0.0801 0.043-0.127 0.0419-0.1687-0.0034-0.3945-0.2361-0.6383-1.1189-0.3068-1.111-0.0189-1.3301 0.2593-1.3282 0.0642 0.0006 0.0746-0.0006 0.1303 0.0153l0.0006-0.0243s-0.8248-2.5966 1.1595-3.7385c0 0 1.8162-0.74336 1.8432-1.1271 0 0.00002-0.147 0.63097 0.312 0.57811-0.311 0.06552-0.389-0.2707 0.092-0.90461 0.059 0.38321 0.523 0.79539 0.64 0.79848 0.819 0.0195 1.604 0.62152 1.742 1.2023 0 0-0.048-0.0856-0.026-0.0856 0.168 0.1161 1.944 0.2016 1.164 3.2873 0 0-0.001 0.0043-0.002 0.0116 0.038-0.0076 0.078-0.0124 0.117-0.013 0.28-0.0034 0.57 0.2141 0.262 1.3282-0.245 0.8901-0.473 1.1194-0.642 1.1189-0.057-0.0003-0.106-0.0258-0.148-0.0611-0.103 0.6085-0.352 1.3318-0.921 1.9084l0.031-0.0018s0.046 0.7083 0.296 1.1113c0.011 0.005 1.545 0.729 3.333 1.158 1.339 0.321 1.403 1.779 1.349 2.499"/><path id="Fill-1" fill="#F9F7F3" d="m18.557 14.271l0.006-0.001s0.015 1.002-0.156 1.408c0 0-2.613 1.602-6.989 1.602l0.003-0.093-0.009 0.093c-4.3762 0-6.9892-1.602-6.9892-1.602-0.1711-0.406-0.1554-1.408-0.1554-1.408-0.054-0.721 0.0107-2.177 1.3484-2.498 1.7947-0.43 3.2833-1.087 3.2833-1.087 0.2942-0.382 0.3469-1.1824 0.3469-1.1824-0.5616-0.5701-0.8105-1.2838-0.9153-1.8872-0.0372 0.0257-0.08 0.043-0.127 0.0419-0.1687-0.0034-0.3945-0.2361-0.6383-1.1189-0.3067-1.111-0.0189-1.3301 0.2594-1.3281 0.0641 0.0005 0.0746-0.0006 0.1303 0.0152l0.0005-0.0243s-0.8248-2.5966 1.1595-3.7384c0 0 1.8159-0.74345 1.8429-1.1272 0 0.00003-0.146 0.63098 0.312 0.57813-0.31 0.06551-0.389-0.27071 0.092-0.90461 0.059 0.38321 0.524 0.79538 0.641 0.79848 0.818 0.0195 1.603 0.6215 1.741 1.2023 0 0-0.047-0.0856-0.025-0.0856 0.167 0.1161 1.943 0.2016 1.163 3.2873 0 0 0 0.0043-0.001 0.0116 0.037-0.0076 0.077-0.0124 0.117-0.0129 0.279-0.0035 0.569 0.214 0.261 1.3281-0.245 0.8901-0.473 1.1194-0.642 1.1189-0.056-0.0003-0.106-0.0258-0.148-0.0611-0.103 0.6085-0.352 1.3318-0.92 1.9084l0.03-0.0017s0.046 0.7081 0.297 1.1111c0.01 0.005 1.545 0.729 3.333 1.158 1.338 0.321 1.402 1.779 1.348 2.499"/></g></g></g></g></svg>