<?xml version="1.0" encoding="UTF-8" standalone="no"?>
<svg width="30" xmlns="http://www.w3.org/2000/svg" viewBox="0 0 30 30" height="30">
 <g fill-rule="evenodd">
  <circle cy="15" cx="15" r="15" fill="#B7AD98"/>
  <path transform="translate(7 6)" d="m10.2 0.48698c-3.6615 0-6.6256 2.6341-6.6256 5.888s2.9641 5.888 6.6256 5.888c1.329 0 2.55-0.354 3.596-0.952 0.937 0.576 1.94 0.554 2.528 0.465 0.175-0.022 0.218-0.243 0.066-0.332-0.567-0.376-0.872-0.908-1.046-1.372 0.915-1.0186 1.46-2.3025 1.46-3.697 0-3.2539-2.964-5.888-6.604-5.888v-0.00002zm-3.3782 3.4088h3.4652c0.284 0 0.523 0.2435 0.523 0.5313 0 0.2877-0.239 0.5312-0.523 0.5312h-3.4652c-0.2833 0-0.5231-0.2435-0.5231-0.5312 0-0.3099 0.2398-0.5313 0.5231-0.5313zm6.7342 4.9584h-6.7342c-0.2833 0-0.5231-0.2435-0.5231-0.5313 0-0.2877 0.2398-0.5312 0.5231-0.5312h6.7342c0.284 0 0.523 0.2435 0.523 0.5312 0 0.3099-0.239 0.5313-0.523 0.5313zm0-1.948h-6.7342c-0.2833 0-0.5231-0.2434-0.5231-0.5312s0.2398-0.5312 0.5231-0.5312h6.7342c0.284 0 0.523 0.2434 0.523 0.5312s-0.239 0.5312-0.523 0.5312zm-3.378 6.5078c0.284 0 0.545-0.022 0.828-0.044-0.632 2.103-2.7675 3.63-5.2957 3.63-1.1116 0-2.1359-0.288-2.9859-0.797-0.7847 0.465-1.6129 0.465-2.0924 0.376-0.13072-0.022-0.17431-0.199-0.06533-0.287 0.47953-0.31 0.71923-0.753 0.87183-1.151-0.76286-0.842-1.2206-1.904-1.2206-3.077 0.00005-1.705 0.9808-3.1877 2.4411-4.0731 0.8064 3.1211 3.8795 5.4231 7.519 5.4231z" fill="#F9F7F3"/>
 </g>
</svg>
