<?xml version="1.0" encoding="UTF-8" standalone="no"?> <svg xmlns="http://www.w3.org/2000/svg" height="30px" width="30px" version="1.1" xmlns:xlink="http://www.w3.org/1999/xlink" viewBox="0 0 30 30"><defs><rect id="path-1" rx="40" height="30" width="30" y="0" x="0"/></defs><g id="Page-1" opacity=".60092" fill-rule="evenodd" fill="none"><g id="NAV---Notifications-Copy" transform="translate(-1442 -340)"><g id="icn_nav_msgs-copy-4" transform="translate(1442 340)"><g id="icn_sponsored-copy-4"><g id="Mask-+-Path-28-+-Path-29-Copy"><mask id="mask-2" fill="white"><use xlink:href="#path-1"/></mask><use id="Mask" xlink:href="#path-1" fill="#927F64"/></g></g><g id="Imported-Layers" fill="#F4F1EA" transform="translate(6.75 9.75)"><path id="Fill-1" d="m8.1894 5.8899l7.0426-5.8672c-0.037-0.00758-0.071-0.0227-0.113-0.0227h-13.86c-0.0368 0-0.0721 0.01512-0.1105 0.02268l7.0409 5.8672"/><path id="Fill-2" d="m15.749 0.63c0-0.06615-0.018-0.12726-0.037-0.18774l-4.993 4.1605 5.001 5.0003c0.013-0.0504 0.029-0.0989 0.029-0.1531v-8.82"/><path id="Fill-3" d="m0.66906 0.44163c-0.01953 0.06048-0.03969 0.12159-0.03969 0.18837v8.82c0 0.0548 0.01827 0.1033 0.03213 0.1537l5.0003-5.0003-4.9927-4.1618"/><path id="Fill-4" d="m10.234 5.0079l-1.843 1.534c-0.0574 0.0492-0.1292 0.0731-0.2016 0.0731-0.0712 0-0.1424-0.0239-0.1997-0.0731l-1.8415-1.5334-5.0413 5.0395c0.0504 0.014 0.0995 0.032 0.1525 0.032h13.86c0.056 0 0.105-0.018 0.155-0.032l-5.04-5.0401"/></g></g></g></g></svg>